<!DOCTYPE svg PUBLIC "-//W3C//DTD SVG 1.1//EN" "http://www.w3.org/Graphics/SVG/1.1/DTD/svg11.dtd">

<!-- Uploaded to: SVG Repo, www.svgrepo.com, Transformed by: SVG Repo Mixer Tools -->
<svg fill="#ffffff" width="40px" height="40px" viewBox="0 0 256 256" id="Flat"
    xmlns="http://www.w3.org/2000/svg" stroke="#ffffff" stroke-width="18.176" transform="rotate(0)">

    <g id="SVGRepo_bgCarrier" stroke-width="0" />

    <g id="SVGRepo_tracerCarrier" stroke-linecap="round" stroke-linejoin="round" stroke="#CCCCCC"
        stroke-width="0.512" />

    <g id="SVGRepo_iconCarrier">
        <path
            d="M100,60.0001a8,8,0,1,1-8-8A8.00008,8.00008,0,0,1,100,60.0001Zm64,8a8,8,0,1,0-8-8A8.00008,8.00008,0,0,0,164,68.0001Zm-72,52a8,8,0,1,0,8,8A7.99977,7.99977,0,0,0,92,120.0001Zm72,0a8,8,0,1,0,8,8A7.99977,7.99977,0,0,0,164,120.0001Zm-72,68a8,8,0,1,0,8,8A7.99977,7.99977,0,0,0,92,188.0001Zm72,0a8,8,0,1,0,8,8A7.99977,7.99977,0,0,0,164,188.0001Z" />
    </g>

</svg>